<svg xmlns="http://www.w3.org/2000/svg" xmlns:xlink="http://www.w3.org/1999/xlink" viewBox="0 0 1080 1920"><defs><style>.cls-1,.cls-22,.cls-23,.cls-25,.cls-28,.cls-30,.cls-34,.cls-36,.cls-38,.cls-40,.cls-42,.cls-44,.cls-46,.cls-48,.cls-50,.cls-52,.cls-54,.cls-56,.cls-58,.cls-59,.cls-61,.cls-63,.cls-65,.cls-68,.cls-70,.cls-72,.cls-73,.cls-75,.cls-77,.cls-78{fill:none;}.cls-2{fill:#f1f3f6;}.cls-3{isolation:isolate;}.cls-4{clip-path:url(#clip-path);}.cls-5{clip-path:url(#clip-path-2);}.cls-10,.cls-11,.cls-14,.cls-15,.cls-18,.cls-19,.cls-6,.cls-7{mix-blend-mode:screen;}.cls-6{fill:url(#radial-gradient);}.cls-7{fill:url(#radial-gradient-2);}.cls-12,.cls-13,.cls-16,.cls-17,.cls-20,.cls-21,.cls-8,.cls-9{mix-blend-mode:multiply;}.cls-8{fill:url(#radial-gradient-3);}.cls-9{fill:url(#radial-gradient-4);}.cls-10{fill:url(#radial-gradient-5);}.cls-11{fill:url(#radial-gradient-6);}.cls-12{fill:url(#radial-gradient-7);}.cls-13{fill:url(#radial-gradient-8);}.cls-14{fill:url(#radial-gradient-9);}.cls-15{fill:url(#radial-gradient-10);}.cls-16{fill:url(#radial-gradient-11);}.cls-17{fill:url(#radial-gradient-12);}.cls-18{fill:url(#radial-gradient-13);}.cls-19{fill:url(#radial-gradient-14);}.cls-20{fill:url(#radial-gradient-15);}.cls-21{fill:url(#radial-gradient-16);}.cls-22,.cls-23,.cls-25,.cls-28,.cls-30,.cls-34,.cls-36,.cls-38,.cls-39,.cls-40,.cls-42,.cls-44,.cls-46,.cls-48,.cls-49,.cls-50,.cls-52,.cls-54,.cls-56,.cls-58,.cls-59,.cls-61,.cls-63,.cls-65,.cls-68,.cls-70,.cls-72,.cls-73,.cls-75,.cls-77,.cls-78{stroke-miterlimit:10;}.cls-22,.cls-23,.cls-34,.cls-40,.cls-42,.cls-44,.cls-46,.cls-50,.cls-52,.cls-59,.cls-68{stroke-width:4px;}.cls-22{stroke:url(#linear-gradient);}.cls-23{stroke:url(#linear-gradient-2);}.cls-24{fill:url(#linear-gradient-3);}.cls-25{stroke-width:3px;stroke:url(#linear-gradient-4);}.cls-26{fill:#25b0db;}.cls-27{fill:url(#linear-gradient-5);}.cls-28,.cls-30,.cls-36,.cls-54,.cls-56,.cls-58,.cls-63,.cls-65,.cls-70,.cls-73,.cls-75,.cls-77{stroke-width:5px;}.cls-28{stroke:url(#linear-gradient-6);}.cls-29{fill:url(#linear-gradient-7);}.cls-30{stroke:url(#linear-gradient-8);}.cls-31{fill:url(#linear-gradient-9);}.cls-32,.cls-33,.cls-42,.cls-43,.cls-54,.cls-55,.cls-59,.cls-60,.cls-61,.cls-62,.cls-67,.cls-73,.cls-74,.cls-78{opacity:0.31;}.cls-32{fill:url(#linear-gradient-10);}.cls-34{stroke:url(#linear-gradient-11);}.cls-35{fill:url(#linear-gradient-12);}.cls-36{stroke:url(#linear-gradient-13);}.cls-37{fill:url(#linear-gradient-14);}.cls-38,.cls-48,.cls-61,.cls-72,.cls-78{stroke-width:8px;}.cls-38{stroke:url(#linear-gradient-15);}.cls-39,.cls-49{stroke-width:0.25px;}.cls-39{fill:url(#linear-gradient-16);stroke:url(#linear-gradient-17);}.cls-40{stroke:url(#linear-gradient-18);}.cls-41{fill:url(#linear-gradient-19);}.cls-42{stroke:url(#linear-gradient-20);}.cls-43{fill:url(#linear-gradient-21);}.cls-44{stroke:url(#linear-gradient-22);}.cls-45{fill:url(#linear-gradient-23);}.cls-46{stroke:url(#linear-gradient-24);}.cls-47{fill:url(#linear-gradient-25);}.cls-48{stroke:url(#linear-gradient-26);}.cls-49{fill:url(#linear-gradient-27);stroke:url(#linear-gradient-28);}.cls-50{stroke:url(#linear-gradient-29);}.cls-51{fill:url(#linear-gradient-30);}.cls-52{stroke:url(#linear-gradient-31);}.cls-53{fill:url(#linear-gradient-32);}.cls-54{stroke:url(#linear-gradient-33);}.cls-55{fill:url(#linear-gradient-34);}.cls-56{stroke:url(#linear-gradient-35);}.cls-57{fill:url(#linear-gradient-36);}.cls-58{stroke:url(#linear-gradient-37);}.cls-59{stroke:url(#linear-gradient-38);}.cls-60{fill:url(#linear-gradient-39);}.cls-61{stroke:url(#linear-gradient-40);}.cls-62{fill:url(#linear-gradient-41);}.cls-63{stroke:url(#linear-gradient-42);}.cls-64{fill:url(#linear-gradient-43);}.cls-65{stroke:url(#linear-gradient-44);}.cls-66{fill:url(#linear-gradient-45);}.cls-67{fill:url(#linear-gradient-46);}.cls-68{stroke:url(#linear-gradient-47);}.cls-69{fill:url(#linear-gradient-48);}.cls-70{stroke:url(#linear-gradient-49);}.cls-71{fill:url(#linear-gradient-50);}.cls-72{stroke:url(#linear-gradient-51);}.cls-73{stroke:url(#linear-gradient-52);}.cls-74{fill:url(#linear-gradient-53);}.cls-75{stroke:url(#linear-gradient-54);}.cls-76{fill:url(#linear-gradient-55);}.cls-77{stroke:url(#linear-gradient-56);}.cls-78{stroke:url(#linear-gradient-57);}.cls-79{fill:url(#linear-gradient-58);}.cls-80{fill:url(#linear-gradient-59);}.cls-81{fill:url(#linear-gradient-60);}.cls-82{fill:url(#linear-gradient-61);}.cls-83{fill:url(#linear-gradient-62);}</style><clipPath id="clip-path"><rect class="cls-1" x="-419" y="423" width="1920" height="1080" transform="translate(1504 422) rotate(90)"/></clipPath><clipPath id="clip-path-2"><rect class="cls-2" x="-708.56" y="-218.66" width="2313.95" height="2303.3" transform="translate(1381.4 484.56) rotate(90)"/></clipPath><radialGradient id="radial-gradient" cx="-2879.45" cy="6526.89" r="2309.31" gradientTransform="matrix(1.37, -1.8, 0.56, 0.43, 919.47, -7524.6)" gradientUnits="userSpaceOnUse"><stop offset="0.23" stop-color="#fff"/><stop offset="0.38" stop-color="#bdbdbd"/><stop offset="0.55" stop-color="#7b7b7b"/><stop offset="0.7" stop-color="#464646"/><stop offset="0.83" stop-color="#202020"/><stop offset="0.93" stop-color="#090909"/><stop offset="1"/></radialGradient><radialGradient id="radial-gradient-2" cx="-2878.49" cy="-32243.31" r="2309.29" gradientTransform="matrix(1.37, -1.8, -0.13, -0.1, 207.42, -8071.21)" xlink:href="#radial-gradient"/><radialGradient id="radial-gradient-3" cx="-2879.36" cy="-8773.67" r="2309.33" gradientTransform="matrix(1.37, -1.8, -0.54, -0.42, -488.4, -8603.76)" gradientUnits="userSpaceOnUse"><stop offset="0.21" stop-color="#dfe6f0"/><stop offset="0.31" stop-color="#e5ebf3"/><stop offset="0.72" stop-color="#f8fafc"/><stop offset="1" stop-color="#fff"/></radialGradient><radialGradient id="radial-gradient-4" cx="-2878.15" cy="30277.21" r="2309.32" gradientTransform="matrix(1.37, -1.8, 0.13, 0.1, 538.35, -7816.08)" xlink:href="#radial-gradient-3"/><radialGradient id="radial-gradient-5" cx="-4470.72" cy="7267.26" r="2309.3" xlink:href="#radial-gradient"/><radialGradient id="radial-gradient-6" cx="-4469.66" cy="-35456.38" r="2309.28" gradientTransform="matrix(1.37, -1.8, -0.13, -0.1, 207.42, -8071.21)" xlink:href="#radial-gradient"/><radialGradient id="radial-gradient-7" cx="-4470.64" cy="-9542.53" r="2309.31" xlink:href="#radial-gradient-3"/><radialGradient id="radial-gradient-8" cx="-4469.31" cy="33490.12" r="2309.31" gradientTransform="matrix(1.37, -1.8, 0.13, 0.1, 538.35, -7816.08)" xlink:href="#radial-gradient-3"/><radialGradient id="radial-gradient-9" cx="-2504.58" cy="7999.41" r="2309.31" xlink:href="#radial-gradient"/><radialGradient id="radial-gradient-10" cx="-2503.44" cy="-38633.58" r="2309.35" gradientTransform="matrix(1.37, -1.8, -0.13, -0.1, 207.42, -8071.21)" xlink:href="#radial-gradient"/><radialGradient id="radial-gradient-11" cx="-2504.51" cy="-10302.82" r="2309.31" xlink:href="#radial-gradient-3"/><radialGradient id="radial-gradient-12" cx="-2503.12" cy="36667.37" r="2309.33" gradientTransform="matrix(1.37, -1.8, 0.13, 0.1, 538.35, -7816.08)" xlink:href="#radial-gradient-3"/><radialGradient id="radial-gradient-13" cx="-4362.36" cy="5823.25" r="2309.3" xlink:href="#radial-gradient"/><radialGradient id="radial-gradient-14" cx="-4361.47" cy="-29189.99" r="2309.24" gradientTransform="matrix(1.37, -1.8, -0.13, -0.1, 207.42, -8071.21)" xlink:href="#radial-gradient"/><radialGradient id="radial-gradient-15" cx="-4362.29" cy="-8043.03" r="2309.34" xlink:href="#radial-gradient-3"/><radialGradient id="radial-gradient-16" cx="-4361.16" cy="27223.7" r="2309.31" gradientTransform="matrix(1.37, -1.8, 0.13, 0.1, 538.35, -7816.08)" xlink:href="#radial-gradient-3"/><linearGradient id="linear-gradient" x1="1745.74" y1="1158.42" x2="2089.68" y2="1158.42" gradientTransform="translate(2178 -58) rotate(90)" gradientUnits="userSpaceOnUse"><stop offset="0" stop-color="#fff"/><stop offset="1" stop-color="#25b0db"/></linearGradient><linearGradient id="linear-gradient-2" x1="1745.74" y1="1216.47" x2="2089.68" y2="1216.47" xlink:href="#linear-gradient"/><linearGradient id="linear-gradient-3" x1="460.62" y1="2167.61" x2="-9.39" y2="2406.07" xlink:href="#linear-gradient"/><linearGradient id="linear-gradient-4" x1="-8.08" y1="2252.64" x2="470.86" y2="2252.64" xlink:href="#linear-gradient"/><linearGradient id="linear-gradient-5" x1="744.41" y1="1033.73" x2="489.83" y2="1288.31" xlink:href="#linear-gradient"/><linearGradient id="linear-gradient-6" x1="-250" y1="1322.25" x2="300" y2="1322.25" gradientTransform="translate(1951 -85) rotate(90)" gradientUnits="userSpaceOnUse"><stop offset="0" stop-color="#053f85"/><stop offset="1" stop-color="#25b0db"/></linearGradient><linearGradient id="linear-gradient-7" x1="248.11" y1="1370.77" x2="351.79" y2="1317.78" xlink:href="#linear-gradient-6"/><linearGradient id="linear-gradient-8" x1="-179" y1="1365.5" x2="137" y2="1204" xlink:href="#linear-gradient-6"/><linearGradient id="linear-gradient-9" x1="111.61" y1="1278.02" x2="215.29" y2="1225.03" xlink:href="#linear-gradient-6"/><linearGradient id="linear-gradient-10" x1="203.61" y1="1156.02" x2="307.29" y2="1103.03" xlink:href="#linear-gradient-6"/><linearGradient id="linear-gradient-11" x1="-247.5" y1="1299.25" x2="376.1" y2="1299.25" xlink:href="#linear-gradient-6"/><linearGradient id="linear-gradient-12" x1="317.26" y1="1354.27" x2="434.81" y2="1294.18" xlink:href="#linear-gradient-6"/><linearGradient id="linear-gradient-13" x1="-235" y1="1439.25" x2="124" y2="1439.25" xlink:href="#linear-gradient-6"/><linearGradient id="linear-gradient-14" x1="72.61" y1="1356.02" x2="176.29" y2="1303.03" xlink:href="#linear-gradient-6"/><linearGradient id="linear-gradient-15" x1="-195.83" y1="1508.76" x2="203.83" y2="1304.49" xlink:href="#linear-gradient-6"/><linearGradient id="linear-gradient-16" x1="234.11" y1="1495.77" x2="337.79" y2="1442.78" xlink:href="#linear-gradient-6"/><linearGradient id="linear-gradient-17" x1="276.54" y1="1474.09" x2="295.46" y2="1464.41" xlink:href="#linear-gradient-6"/><linearGradient id="linear-gradient-18" x1="2.88" y1="1585.67" x2="247.12" y2="1460.83" xlink:href="#linear-gradient-6"/><linearGradient id="linear-gradient-19" x1="-3483.3" y1="823.73" x2="-3428.99" y2="795.97" gradientTransform="translate(-1151.55 -6387.55) rotate(-90) scale(1.91)" xlink:href="#linear-gradient-6"/><linearGradient id="linear-gradient-20" x1="7.08" y1="1605.77" x2="300.79" y2="1455.65" xlink:href="#linear-gradient-6"/><linearGradient id="linear-gradient-21" x1="-3522.69" y1="819.17" x2="-3463.95" y2="789.14" gradientTransform="translate(-1151.55 -6387.55) rotate(-90) scale(1.91)" xlink:href="#linear-gradient-6"/><linearGradient id="linear-gradient-22" x1="-257.92" y1="1683.28" x2="84.52" y2="1508.26" xlink:href="#linear-gradient-6"/><linearGradient id="linear-gradient-23" x1="51.61" y1="1568.02" x2="155.29" y2="1515.03" xlink:href="#linear-gradient-6"/><linearGradient id="linear-gradient-24" x1="-234.92" y1="1738.28" x2="107.52" y2="1563.26" xlink:href="#linear-gradient-6"/><linearGradient id="linear-gradient-25" x1="74.61" y1="1623.02" x2="178.29" y2="1570.03" xlink:href="#linear-gradient-6"/><linearGradient id="linear-gradient-26" x1="-210.83" y1="1751.76" x2="188.83" y2="1547.49" xlink:href="#linear-gradient-6"/><linearGradient id="linear-gradient-27" x1="219.11" y1="1738.77" x2="322.79" y2="1685.78" xlink:href="#linear-gradient-6"/><linearGradient id="linear-gradient-28" x1="261.54" y1="1717.09" x2="280.46" y2="1707.41" xlink:href="#linear-gradient-6"/><linearGradient id="linear-gradient-29" x1="-228.54" y1="1887.59" x2="366.68" y2="1583.36" xlink:href="#linear-gradient-6"/><linearGradient id="linear-gradient-30" x1="353.61" y1="1690.02" x2="457.29" y2="1637.03" xlink:href="#linear-gradient-6"/><linearGradient id="linear-gradient-31" x1="-212.47" y1="1937.56" x2="433.39" y2="1607.46" xlink:href="#linear-gradient-6"/><linearGradient id="linear-gradient-32" x1="419.34" y1="1722.93" x2="531.71" y2="1665.5" xlink:href="#linear-gradient-6"/><linearGradient id="linear-gradient-33" x1="-187.87" y1="1371.14" x2="389.87" y2="1075.86" xlink:href="#linear-gradient-6"/><linearGradient id="linear-gradient-34" x1="452.61" y1="1312.02" x2="556.29" y2="1259.03" xlink:href="#linear-gradient-6"/><linearGradient id="linear-gradient-35" x1="-230.05" y1="1358.15" x2="156.85" y2="1160.4" xlink:href="#linear-gradient-6"/><linearGradient id="linear-gradient-36" x1="126.7" y1="1251.95" x2="253.37" y2="1187.21" xlink:href="#linear-gradient-6"/><linearGradient id="linear-gradient-37" x1="-267.33" y1="1292.11" x2="205" y2="1050.7" xlink:href="#linear-gradient-6"/><linearGradient id="linear-gradient-38" x1="-331" y1="1686.5" x2="393" y2="1686.5" xlink:href="#linear-gradient-6"/><linearGradient id="linear-gradient-39" x1="349.61" y1="1781.02" x2="453.29" y2="1728.03" xlink:href="#linear-gradient-6"/><linearGradient id="linear-gradient-40" x1="-214.48" y1="1563.99" x2="370.48" y2="1265.01" xlink:href="#linear-gradient-6"/><linearGradient id="linear-gradient-41" x1="455.61" y1="1544.02" x2="559.29" y2="1491.03" xlink:href="#linear-gradient-6"/><linearGradient id="linear-gradient-42" x1="-2792" y1="2126.25" x2="-2242" y2="2126.25" gradientTransform="matrix(0, -1, -1, 0, 2178, -614)" xlink:href="#linear-gradient-6"/><linearGradient id="linear-gradient-43" x1="-2293.89" y1="2174.77" x2="-2190.21" y2="2121.78" gradientTransform="matrix(0, -1, -1, 0, 2178, -614)" xlink:href="#linear-gradient-6"/><linearGradient id="linear-gradient-44" x1="-2721" y1="2169.5" x2="-2405" y2="2008" gradientTransform="matrix(0, -1, -1, 0, 2178, -614)" xlink:href="#linear-gradient-6"/><linearGradient id="linear-gradient-45" x1="-2430.39" y1="2082.02" x2="-2326.71" y2="2029.03" gradientTransform="matrix(0, -1, -1, 0, 2178, -614)" xlink:href="#linear-gradient-6"/><linearGradient id="linear-gradient-46" x1="-2338.39" y1="1960.02" x2="-2234.71" y2="1907.03" gradientTransform="matrix(0, -1, -1, 0, 2178, -614)" xlink:href="#linear-gradient-6"/><linearGradient id="linear-gradient-47" x1="-2789.5" y1="2103.25" x2="-2165.9" y2="2103.25" gradientTransform="matrix(0, -1, -1, 0, 2178, -614)" xlink:href="#linear-gradient-6"/><linearGradient id="linear-gradient-48" x1="-2224.74" y1="2158.27" x2="-2107.19" y2="2098.18" gradientTransform="matrix(0, -1, -1, 0, 2178, -614)" xlink:href="#linear-gradient-6"/><linearGradient id="linear-gradient-49" x1="-2777" y1="2243.25" x2="-2418" y2="2243.25" gradientTransform="matrix(0, -1, -1, 0, 2178, -614)" xlink:href="#linear-gradient-6"/><linearGradient id="linear-gradient-50" x1="-2469.39" y1="2160.02" x2="-2365.71" y2="2107.03" gradientTransform="matrix(0, -1, -1, 0, 2178, -614)" xlink:href="#linear-gradient-6"/><linearGradient id="linear-gradient-51" x1="-2737.83" y1="2312.76" x2="-2338.17" y2="2108.49" gradientTransform="matrix(0, -1, -1, 0, 2178, -614)" xlink:href="#linear-gradient-6"/><linearGradient id="linear-gradient-52" x1="-2729.87" y1="2175.14" x2="-2152.13" y2="1879.86" gradientTransform="matrix(0, -1, -1, 0, 2178, -614)" xlink:href="#linear-gradient-6"/><linearGradient id="linear-gradient-53" x1="-2089.39" y1="2116.02" x2="-1985.71" y2="2063.03" gradientTransform="matrix(0, -1, -1, 0, 2178, -614)" xlink:href="#linear-gradient-6"/><linearGradient id="linear-gradient-54" x1="-2772.05" y1="2162.15" x2="-2385.15" y2="1964.4" gradientTransform="matrix(0, -1, -1, 0, 2178, -614)" xlink:href="#linear-gradient-6"/><linearGradient id="linear-gradient-55" x1="-2415.3" y1="2055.95" x2="-2288.63" y2="1991.21" gradientTransform="matrix(0, -1, -1, 0, 2178, -614)" xlink:href="#linear-gradient-6"/><linearGradient id="linear-gradient-56" x1="-2809.33" y1="2096.11" x2="-2337" y2="1854.7" gradientTransform="matrix(0, -1, -1, 0, 2178, -614)" xlink:href="#linear-gradient-6"/><linearGradient id="linear-gradient-57" x1="-2756.48" y1="2367.99" x2="-2171.52" y2="2069.01" gradientTransform="matrix(0, -1, -1, 0, 2178, -614)" xlink:href="#linear-gradient-6"/><linearGradient id="linear-gradient-58" x1="711.2" y1="970.96" x2="64.93" y2="1226.7" xlink:href="#linear-gradient"/><linearGradient id="linear-gradient-59" x1="386.65" y1="1183.54" x2="142.42" y2="1289.53" xlink:href="#linear-gradient"/><linearGradient id="linear-gradient-60" x1="6.76" y1="477.91" x2="49.11" y2="477.91" gradientTransform="translate(157.9 1423.36) rotate(-6.66)" xlink:href="#linear-gradient"/><linearGradient id="linear-gradient-61" x1="38.09" y1="446.57" x2="80.44" y2="446.57" gradientTransform="translate(157.9 1423.36) rotate(-6.66)" xlink:href="#linear-gradient"/><linearGradient id="linear-gradient-62" x1="69.43" y1="415.23" x2="111.78" y2="415.23" gradientTransform="translate(157.9 1423.36) rotate(-6.66)" xlink:href="#linear-gradient"/></defs><title>Websitebackgmobile</title><g class="cls-3"><g id="Layer_1" data-name="Layer 1"><g class="cls-4"><rect class="cls-2" x="-708.56" y="-218.66" width="2313.95" height="2303.3" transform="translate(1381.4 484.56) rotate(90)"/><g class="cls-5"><path class="cls-6" d="M-657.59-497.41C-1254.87,291-1744.24,1080.25-2099.79,1798.65L-1442.5,2903,2554.17-2355.64,2523-2408Z"/><path class="cls-7" d="M2554.17-2355.64-1442.5,2903l135.18,227.12C-720.89,2446.43-.37,1551.16,757.13,554.48,1516-444,2186.89-1379.68,2689.19-2128.79Z"/><path class="cls-8" d="M363,2631.33c408.83-424.29,824-908,1226.84-1438.09,665.82-876,1201.76-1751.49,1571.51-2528.72L2554.17-2355.64-1442.5,2903l356.43,598.84Z"/><path class="cls-9" d="M2037.58-2116.44C1503.93-1480.7,882.17-701.37,233.17,152.56-469.17,1076.66-1096.18,1947-1583.9,2665.41L-1442.5,2903,2554.17-2355.64,2523-2408Z"/><path class="cls-10" d="M-1152.32,3390.51,1869.57-585.55c-757.52-210.51-2321,886.83-3802.94,2663.82Z"/><path class="cls-11" d="M-607.36,3214.25c1409-1889.22,2432-3458.68,2476.93-3799.8L-1152.32,3390.51l66.25,111.31Z"/><path class="cls-12" d="M1291.92,2073.31C1898.25,871.38,2132.66-127.34,1869.57-585.55L-1152.32,3390.51l66.25,111.31Z"/><path class="cls-13" d="M-1152.32,3390.51,1869.57-585.55c-330.74,139.77-1673.21,1675-3203.65,3670.69Z"/><path class="cls-14" d="M-161.42,2946.36,3131.28-1386,2523-2408l-445,267.33C1619.8-1684,1152.09-1149.66,701.23-556.45c-1025.18,1348.89-1735,2702-2000.2,3700.58l212.9,357.69Z"/><path class="cls-15" d="M485.53,2557.73C974.44,1967.27,1526.62,1271,2100,516.52,2532.68-52.75,2936.74-601.6,3297.28-1107.13l-166-278.89L-161.42,2946.36Z"/><path class="cls-16" d="M3025.59,1031.86c304.47-408,580.47-814.89,824.15-1210.78L3131.28-1386-161.42,2946.36Z"/><path class="cls-17" d="M-161.42,2946.36,3131.28-1386l-161.74-271.74C2537.8-1128.86,2064.62-528.22,1576.06,114.61,660.6,1319.12-126.83,2432.24-644.66,3236.65Z"/><path class="cls-18" d="M-1296-113.91C-1688.38,243.56-2093.8,663.89-2494.82,1135l776.56,1304.72L1203.75-1405c-94.42-26.24-201.43-32-319.17-18.86Z"/><path class="cls-19" d="M-1718.26,2439.68l182,305.7C6.77,702.49,1156.06-1042.95,1203.75-1405Z"/><path class="cls-20" d="M-560.24,3185.94C869,1197.9,1599.64-715.46,1203.75-1405l-2922,3844.64,632.19,1062.14Z"/><path class="cls-21" d="M-1718.26,2439.68,1203.75-1405C880.26-1268.26-411.08,203.41-1899.52,2135.14Z"/></g><path class="cls-22" d="M850.05,1859.71a41.29,41.29,0,0,1,12.13-29.35L990.31,1701.9a41.32,41.32,0,0,1,58.55,0L1177,1830.36a41.6,41.6,0,0,1,0,58.7l-128.13,128.46a41.32,41.32,0,0,1-58.55,0L862.18,1889.06A41.3,41.3,0,0,1,850.05,1859.71Z"/><path class="cls-23" d="M792,1859.71a41.29,41.29,0,0,1,12.13-29.35L932.26,1701.9a41.31,41.31,0,0,1,58.54,0l128.13,128.46a41.57,41.57,0,0,1,0,58.7L990.8,2017.52a41.31,41.31,0,0,1-58.54,0L804.13,1889.06A41.3,41.3,0,0,1,792,1859.71Z"/><path class="cls-24" d="M-346,172.92a58.39,58.39,0,0,1,17.16-41.52L-147.56-50.35a58.07,58.07,0,0,1,41.41-17.2,58.07,58.07,0,0,1,41.42,17.2L116.55,131.4a58.82,58.82,0,0,1,0,83L-64.73,396.2a58.11,58.11,0,0,1-41.42,17.2,58.11,58.11,0,0,1-41.41-17.2L-328.84,214.45A58.41,58.41,0,0,1-346,172.92Z"/><path class="cls-25" d="M-312,173.39a57.81,57.81,0,0,1,17-41.09L-115.63-47.56a57.49,57.49,0,0,1,41-17,57.49,57.49,0,0,1,41,17L145.74,132.3a58.23,58.23,0,0,1,0,82.18L-33.66,394.34a57.49,57.49,0,0,1-41,17,57.49,57.49,0,0,1-41-17L-295,214.48A57.79,57.79,0,0,1-312,173.39Z"/><path class="cls-26" d="M110.08,462.78a4.11,4.11,0,1,1-4.11,4.11A4.11,4.11,0,0,1,110.08,462.78Z"/><circle class="cls-26" cx="144.76" cy="466.89" r="4.11" transform="translate(-287.74 239.11) rotate(-45)"/><path class="cls-26" d="M110.08,431.41a4.11,4.11,0,1,1-4.11,4.11A4.11,4.11,0,0,1,110.08,431.41Z"/><path class="cls-26" d="M144.76,431.41a4.11,4.11,0,1,1-4.11,4.11A4.11,4.11,0,0,1,144.76,431.41Z"/><path class="cls-26" d="M110.08,400a4.11,4.11,0,1,1-4.11,4.1A4.11,4.11,0,0,1,110.08,400Z"/><circle class="cls-26" cx="144.76" cy="404.14" r="4.11" transform="translate(-243.37 220.73) rotate(-45)"/><path class="cls-26" d="M110.08,368.66a4.11,4.11,0,1,1-4.11,4.11A4.1,4.1,0,0,1,110.08,368.66Z"/><path class="cls-26" d="M144.76,368.66a4.11,4.11,0,1,1-4.11,4.11A4.11,4.11,0,0,1,144.76,368.66Z"/><path class="cls-26" d="M110.08,337.29A4.11,4.11,0,1,1,106,341.4,4.1,4.1,0,0,1,110.08,337.29Z"/><path class="cls-26" d="M144.76,337.29a4.11,4.11,0,1,1-4.11,4.11A4.11,4.11,0,0,1,144.76,337.29Z"/><path class="cls-26" d="M110.08,305.92A4.11,4.11,0,1,1,106,310,4.1,4.1,0,0,1,110.08,305.92Z"/><path class="cls-26" d="M144.76,305.92a4.11,4.11,0,1,1-4.11,4.11A4.11,4.11,0,0,1,144.76,305.92Z"/><path class="cls-27" d="M852.14,394.29h0a26,26,0,0,1,36.61,0L1161.43,667a26,26,0,0,1,0,36.6h0a26,26,0,0,1-36.6,0L852.14,430.89A26,26,0,0,1,852.14,394.29Z"/><polyline class="cls-28" points="685 -335 685 -244 572.5 -131.5 572.5 57 606.75 91.25 606.75 215"/><circle class="cls-29" cx="606.75" cy="215" r="10.5"/><polyline class="cls-30" points="633 -287 633 -74 699.5 -7.5 699.5 75"/><circle class="cls-31" cx="699.5" cy="78.5" r="10.5"/><circle class="cls-32" cx="821.5" cy="170.5" r="10.5"/><g class="cls-33"><polyline class="cls-34" points="715.53 -332.5 715.53 -229.32 587.97 -101.77 587.97 111.95 626.81 150.79 626.81 291.1"/><circle class="cls-35" cx="626.81" cy="291.1" r="11.9"/></g><polyline class="cls-36" points="401 -320 401 -255 622.5 -33.5 622.5 39"/><circle class="cls-37" cx="621.5" cy="39.5" r="10.5"/><polyline class="cls-38" points="607 -363 607 -247 526.5 -166.5 526.5 98 481.75 142.75 481.75 201"/><circle class="cls-39" cx="481.75" cy="201" r="10.5"/><polyline class="cls-40" points="461 -130 461 57 394.5 123.5 394.5 210"/><circle class="cls-41" cx="394.5" cy="210.5" r="10.5"/><polyline class="cls-42" points="456.95 -134 456.95 89.23 383.63 168.61 383.63 271.87"/><ellipse class="cls-43" cx="383.63" cy="281.47" rx="10.65" ry="11.53"/><polyline class="cls-44" points="279 -348 340 -287 340 -116 408.5 -47.5 408.5 16"/><circle class="cls-45" cx="409.5" cy="18.5" r="10.5"/><g class="cls-33"><polyline class="cls-46" points="224 -325 285 -264 285 -93 353.5 -24.5 353.5 39"/><circle class="cls-47" cx="354.5" cy="41.5" r="10.5"/></g><g class="cls-33"><polyline class="cls-48" points="364 -378 364 -262 283.5 -181.5 283.5 83 238.75 127.75 238.75 186"/><circle class="cls-49" cx="238.75" cy="186" r="10.5"/></g><polyline class="cls-50" points="125 -344 125 -193 326 8 326 282 287.5 320.5"/><circle class="cls-51" cx="287.5" cy="320.5" r="10.5"/><g class="cls-33"><polyline class="cls-52" points="83 -332 83 -167.8 298 50.77 298 348.72 256.82 390.58"/><ellipse class="cls-53" cx="256.82" cy="390.58" rx="11.23" ry="11.42"/></g><polyline class="cls-54" points="665 411 665 214 614 163 614 -122 790 -298 790 -379"/><circle class="cls-55" cx="665.5" cy="419.5" r="10.5"/><g class="cls-33"><polyline class="cls-56" points="652 -344 652 -82.28 731.46 -0.57 731.46 100.8"/><ellipse class="cls-57" cx="731.45" cy="105.1" rx="12.55" ry="12.9"/></g><g class="cls-33"><polyline class="cls-58" points="739 -392 739 -67.4 820.18 33.94 820.18 159.66"/></g><polyline class="cls-59" points="195.5 308 195.5 -122.42 333.5 -294.09 333.5 -416"/><circle class="cls-60" cx="196.5" cy="316.5" r="10.5"/><polyline class="cls-61" points="432.5 413 432.5 332 503.5 261 503.5 -147 640.5 -284 640.5 -427"/><circle class="cls-62" cx="433.5" cy="422.5" r="10.5"/><polyline class="cls-63" points="108 2178 108 2087 -4.5 1974.5 -4.5 1786 29.75 1751.75 29.75 1628"/><circle class="cls-64" cx="29.75" cy="1628" r="10.5"/><polyline class="cls-65" points="56 2130 56 1917 122.5 1850.5 122.5 1768"/><circle class="cls-66" cx="122.5" cy="1764.5" r="10.5"/><circle class="cls-67" cx="244.5" cy="1672.5" r="10.5"/><g class="cls-33"><polyline class="cls-68" points="138.53 2175.5 138.53 2072.32 10.97 1944.77 10.97 1731.05 49.81 1692.21 49.81 1551.9"/><circle class="cls-69" cx="49.81" cy="1551.9" r="11.9"/></g><polyline class="cls-70" points="-176 2163 -176 2098 45.5 1876.5 45.5 1804"/><circle class="cls-71" cx="44.5" cy="1803.5" r="10.5"/><polyline class="cls-72" points="30 2206 30 2090 -50.5 2009.5 -50.5 1745 -95.25 1700.25 -95.25 1642"/><polyline class="cls-73" points="88 1432 88 1629 37 1680 37 1965 213 2141 213 2222"/><circle class="cls-74" cx="88.5" cy="1423.5" r="10.5"/><g class="cls-33"><polyline class="cls-75" points="75 2187 75 1925.28 154.46 1843.57 154.46 1742.2"/><ellipse class="cls-76" cx="154.45" cy="1737.9" rx="12.55" ry="12.9"/></g><g class="cls-33"><polyline class="cls-77" points="162 2235 162 1910.4 243.18 1809.06 243.18 1683.34"/></g><polyline class="cls-78" points="-144.5 1430 -144.5 1511 -73.5 1582 -73.5 1990 63.5 2127 63.5 2270"/><path class="cls-79" d="M866,329.5a51.85,51.85,0,0,1,15.23-36.86l161-161.37a51.93,51.93,0,0,1,73.54,0l160.94,161.37a52.23,52.23,0,0,1,0,73.73L1115.72,527.73a51.91,51.91,0,0,1-73.54,0l-161-161.36A51.88,51.88,0,0,1,866,329.5Z"/><path class="cls-80" d="M866,225.52A20.4,20.4,0,0,1,872,211l63.26-63.43a20.41,20.41,0,0,1,28.91,0L1027.42,211a20.52,20.52,0,0,1,0,29l-63.26,63.43a20.41,20.41,0,0,1-28.91,0L872,240A20.4,20.4,0,0,1,866,225.52Z"/><path class="cls-81" d="M247.75,1888.93l2.24,19.14a6.9,6.9,0,0,0,2.59,4.64h0a6.94,6.94,0,0,0,11.2-6.25l-3.22-27.63a7.58,7.58,0,0,0-8.4-6.65l-27.63,3.23a7,7,0,0,0-3.51,12.35h0a7,7,0,0,0,5.12,1.45l19.14-2.24A2.23,2.23,0,0,1,247.75,1888.93Z"/><path class="cls-82" d="M275.24,1854.17l2.24,19.14a6.9,6.9,0,0,0,2.59,4.64h0a6.94,6.94,0,0,0,11.2-6.26l-3.22-27.63a7.58,7.58,0,0,0-8.4-6.64L252,1840.65a7,7,0,0,0-3.51,12.35h0a7,7,0,0,0,5.12,1.45l19.14-2.24A2.23,2.23,0,0,1,275.24,1854.17Z"/><path class="cls-83" d="M302.73,1819.4l2.24,19.14a6.94,6.94,0,0,0,2.59,4.65h0a6.94,6.94,0,0,0,11.2-6.26l-3.22-27.63a7.57,7.57,0,0,0-8.4-6.64l-27.63,3.23a6.94,6.94,0,0,0-3.51,12.34h0a7,7,0,0,0,5.12,1.46l19.14-2.24A2.23,2.23,0,0,1,302.73,1819.4Z"/><rect class="cls-1" x="-432" y="441" width="1920" height="1080" transform="translate(1509 453) rotate(90)"/><rect class="cls-1" x="-420" y="418" width="1920" height="1080" transform="translate(1498 418) rotate(90)"/></g></g></g></svg>