<svg xmlns="http://www.w3.org/2000/svg" xmlns:xlink="http://www.w3.org/1999/xlink" viewBox="0 0 1920 1080"><defs><style>.cls-1,.cls-22,.cls-23,.cls-25,.cls-28,.cls-30,.cls-34,.cls-36,.cls-38,.cls-40,.cls-42,.cls-44,.cls-46,.cls-48,.cls-50,.cls-52,.cls-54,.cls-56,.cls-58,.cls-59,.cls-61,.cls-63,.cls-65,.cls-68,.cls-70,.cls-72,.cls-73,.cls-75,.cls-77,.cls-78{fill:none;}.cls-2{fill:#f1f3f6;}.cls-3{isolation:isolate;}.cls-4{clip-path:url(#clip-path);}.cls-5{clip-path:url(#clip-path-2);}.cls-10,.cls-11,.cls-14,.cls-15,.cls-18,.cls-19,.cls-6,.cls-7{mix-blend-mode:screen;}.cls-6{fill:url(#radial-gradient);}.cls-7{fill:url(#radial-gradient-2);}.cls-12,.cls-13,.cls-16,.cls-17,.cls-20,.cls-21,.cls-8,.cls-9{mix-blend-mode:multiply;}.cls-8{fill:url(#radial-gradient-3);}.cls-9{fill:url(#radial-gradient-4);}.cls-10{fill:url(#radial-gradient-5);}.cls-11{fill:url(#radial-gradient-6);}.cls-12{fill:url(#radial-gradient-7);}.cls-13{fill:url(#radial-gradient-8);}.cls-14{fill:url(#radial-gradient-9);}.cls-15{fill:url(#radial-gradient-10);}.cls-16{fill:url(#radial-gradient-11);}.cls-17{fill:url(#radial-gradient-12);}.cls-18{fill:url(#radial-gradient-13);}.cls-19{fill:url(#radial-gradient-14);}.cls-20{fill:url(#radial-gradient-15);}.cls-21{fill:url(#radial-gradient-16);}.cls-22,.cls-23,.cls-25,.cls-28,.cls-30,.cls-34,.cls-36,.cls-38,.cls-39,.cls-40,.cls-42,.cls-44,.cls-46,.cls-48,.cls-49,.cls-50,.cls-52,.cls-54,.cls-56,.cls-58,.cls-59,.cls-61,.cls-63,.cls-65,.cls-68,.cls-70,.cls-72,.cls-73,.cls-75,.cls-77,.cls-78{stroke-miterlimit:10;}.cls-22,.cls-23,.cls-34,.cls-40,.cls-42,.cls-44,.cls-46,.cls-50,.cls-52,.cls-59,.cls-68{stroke-width:4px;}.cls-22{stroke:url(#linear-gradient);}.cls-23{stroke:url(#linear-gradient-2);}.cls-24{fill:url(#linear-gradient-3);}.cls-25{stroke-width:3px;stroke:url(#linear-gradient-4);}.cls-26{fill:#25b0db;}.cls-27{fill:url(#linear-gradient-5);}.cls-28,.cls-30,.cls-36,.cls-54,.cls-56,.cls-58,.cls-63,.cls-65,.cls-70,.cls-73,.cls-75,.cls-77{stroke-width:5px;}.cls-28{stroke:url(#linear-gradient-6);}.cls-29{fill:url(#linear-gradient-7);}.cls-30{stroke:url(#linear-gradient-8);}.cls-31{fill:url(#linear-gradient-9);}.cls-32,.cls-33,.cls-42,.cls-43,.cls-54,.cls-55,.cls-59,.cls-60,.cls-61,.cls-62,.cls-67,.cls-73,.cls-74,.cls-78{opacity:0.31;}.cls-32{fill:url(#linear-gradient-10);}.cls-34{stroke:url(#linear-gradient-11);}.cls-35{fill:url(#linear-gradient-12);}.cls-36{stroke:url(#linear-gradient-13);}.cls-37{fill:url(#linear-gradient-14);}.cls-38,.cls-48,.cls-61,.cls-72,.cls-78{stroke-width:8px;}.cls-38{stroke:url(#linear-gradient-15);}.cls-39,.cls-49{stroke-width:0.25px;}.cls-39{fill:url(#linear-gradient-16);stroke:url(#linear-gradient-17);}.cls-40{stroke:url(#linear-gradient-18);}.cls-41{fill:url(#linear-gradient-19);}.cls-42{stroke:url(#linear-gradient-20);}.cls-43{fill:url(#linear-gradient-21);}.cls-44{stroke:url(#linear-gradient-22);}.cls-45{fill:url(#linear-gradient-23);}.cls-46{stroke:url(#linear-gradient-24);}.cls-47{fill:url(#linear-gradient-25);}.cls-48{stroke:url(#linear-gradient-26);}.cls-49{fill:url(#linear-gradient-27);stroke:url(#linear-gradient-28);}.cls-50{stroke:url(#linear-gradient-29);}.cls-51{fill:url(#linear-gradient-30);}.cls-52{stroke:url(#linear-gradient-31);}.cls-53{fill:url(#linear-gradient-32);}.cls-54{stroke:url(#linear-gradient-33);}.cls-55{fill:url(#linear-gradient-34);}.cls-56{stroke:url(#linear-gradient-35);}.cls-57{fill:url(#linear-gradient-36);}.cls-58{stroke:url(#linear-gradient-37);}.cls-59{stroke:url(#linear-gradient-38);}.cls-60{fill:url(#linear-gradient-39);}.cls-61{stroke:url(#linear-gradient-40);}.cls-62{fill:url(#linear-gradient-41);}.cls-63{stroke:url(#linear-gradient-42);}.cls-64{fill:url(#linear-gradient-43);}.cls-65{stroke:url(#linear-gradient-44);}.cls-66{fill:url(#linear-gradient-45);}.cls-67{fill:url(#linear-gradient-46);}.cls-68{stroke:url(#linear-gradient-47);}.cls-69{fill:url(#linear-gradient-48);}.cls-70{stroke:url(#linear-gradient-49);}.cls-71{fill:url(#linear-gradient-50);}.cls-72{stroke:url(#linear-gradient-51);}.cls-73{stroke:url(#linear-gradient-52);}.cls-74{fill:url(#linear-gradient-53);}.cls-75{stroke:url(#linear-gradient-54);}.cls-76{fill:url(#linear-gradient-55);}.cls-77{stroke:url(#linear-gradient-56);}.cls-78{stroke:url(#linear-gradient-57);}.cls-79{fill:url(#linear-gradient-58);}.cls-80{fill:url(#linear-gradient-59);}.cls-81{fill:url(#linear-gradient-60);}.cls-82{fill:url(#linear-gradient-61);}.cls-83{fill:url(#linear-gradient-62);}</style><clipPath id="clip-path"><rect class="cls-1" x="3" y="1" width="1920" height="1080"/></clipPath><clipPath id="clip-path-2"><rect class="cls-2" x="-223.99" y="-518.07" width="2313.95" height="2303.3"/></clipPath><radialGradient id="radial-gradient" cx="-2109.68" cy="6457.33" r="2309.31" gradientTransform="matrix(-1.8, -1.37, 0.43, -0.56, -6109.07, 1176.27)" gradientUnits="userSpaceOnUse"><stop offset="0.23" stop-color="#fff"/><stop offset="0.38" stop-color="#bdbdbd"/><stop offset="0.55" stop-color="#7b7b7b"/><stop offset="0.7" stop-color="#464646"/><stop offset="0.83" stop-color="#202020"/><stop offset="0.93" stop-color="#090909"/><stop offset="1"/></radialGradient><radialGradient id="radial-gradient-2" cx="-2108.67" cy="-34184.09" r="2309.29" gradientTransform="matrix(-1.8, -1.37, -0.1, 0.13, -6879.15, 2179.63)" xlink:href="#radial-gradient"/><radialGradient id="radial-gradient-3" cx="-2109.59" cy="-9557.58" r="2309.33" gradientTransform="matrix(-1.8, -1.37, -0.42, 0.54, -7544.7, 3048.92)" gradientUnits="userSpaceOnUse"><stop offset="0.21" stop-color="#dfe6f0"/><stop offset="0.31" stop-color="#e5ebf3"/><stop offset="0.72" stop-color="#f8fafc"/><stop offset="1" stop-color="#fff"/></radialGradient><radialGradient id="radial-gradient-4" cx="-2108.33" cy="31377.99" r="2309.32" gradientTransform="matrix(-1.8, -1.37, 0.1, -0.13, -6540.28, 1739.61)" xlink:href="#radial-gradient-3"/><radialGradient id="radial-gradient-5" cx="-3700.95" cy="7197.7" r="2309.3" xlink:href="#radial-gradient"/><radialGradient id="radial-gradient-6" cx="-3699.83" cy="-37397.16" r="2309.28" gradientTransform="matrix(-1.8, -1.37, -0.1, 0.13, -6879.15, 2179.63)" xlink:href="#radial-gradient"/><radialGradient id="radial-gradient-7" cx="-3700.87" cy="-10326.44" r="2309.31" xlink:href="#radial-gradient-3"/><radialGradient id="radial-gradient-8" cx="-3699.49" cy="34590.9" r="2309.31" gradientTransform="matrix(-1.8, -1.37, 0.1, -0.13, -6540.28, 1739.61)" xlink:href="#radial-gradient-3"/><radialGradient id="radial-gradient-9" cx="-1734.8" cy="7929.85" r="2309.31" xlink:href="#radial-gradient"/><radialGradient id="radial-gradient-10" cx="-1733.62" cy="-40574.37" r="2309.35" gradientTransform="matrix(-1.8, -1.37, -0.1, 0.13, -6879.15, 2179.63)" xlink:href="#radial-gradient"/><radialGradient id="radial-gradient-11" cx="-1734.75" cy="-11086.74" r="2309.31" xlink:href="#radial-gradient-3"/><radialGradient id="radial-gradient-12" cx="-1733.3" cy="37768.15" r="2309.33" gradientTransform="matrix(-1.8, -1.37, 0.1, -0.13, -6540.28, 1739.61)" xlink:href="#radial-gradient-3"/><radialGradient id="radial-gradient-13" cx="-3592.59" cy="5753.69" r="2309.3" xlink:href="#radial-gradient"/><radialGradient id="radial-gradient-14" cx="-3591.64" cy="-31130.77" r="2309.24" gradientTransform="matrix(-1.8, -1.37, -0.1, 0.13, -6879.15, 2179.63)" xlink:href="#radial-gradient"/><radialGradient id="radial-gradient-15" cx="-3592.52" cy="-8826.94" r="2309.34" xlink:href="#radial-gradient-3"/><radialGradient id="radial-gradient-16" cx="-3591.34" cy="28324.49" r="2309.31" gradientTransform="matrix(-1.8, -1.37, 0.1, -0.13, -6540.28, 1739.61)" xlink:href="#radial-gradient-3"/><linearGradient id="linear-gradient" x1="1687.74" y1="62.42" x2="2031.68" y2="62.42" gradientUnits="userSpaceOnUse"><stop offset="0" stop-color="#fff"/><stop offset="1" stop-color="#25b0db"/></linearGradient><linearGradient id="linear-gradient-2" x1="1687.74" y1="120.47" x2="2031.68" y2="120.47" xlink:href="#linear-gradient"/><linearGradient id="linear-gradient-3" x1="402.62" y1="1071.61" x2="-67.39" y2="1310.07" xlink:href="#linear-gradient"/><linearGradient id="linear-gradient-4" x1="-66.08" y1="1156.64" x2="412.86" y2="1156.64" xlink:href="#linear-gradient"/><linearGradient id="linear-gradient-5" x1="686.41" y1="-62.27" x2="431.83" y2="192.31" xlink:href="#linear-gradient"/><linearGradient id="linear-gradient-6" x1="-308" y1="226.25" x2="242" y2="226.25" gradientTransform="translate(-27 227)" gradientUnits="userSpaceOnUse"><stop offset="0" stop-color="#053f85"/><stop offset="1" stop-color="#25b0db"/></linearGradient><linearGradient id="linear-gradient-7" x1="190.11" y1="274.77" x2="293.79" y2="221.78" xlink:href="#linear-gradient-6"/><linearGradient id="linear-gradient-8" x1="-237" y1="269.5" x2="79" y2="108" xlink:href="#linear-gradient-6"/><linearGradient id="linear-gradient-9" x1="53.61" y1="182.02" x2="157.29" y2="129.03" xlink:href="#linear-gradient-6"/><linearGradient id="linear-gradient-10" x1="145.61" y1="60.02" x2="249.29" y2="7.03" xlink:href="#linear-gradient-6"/><linearGradient id="linear-gradient-11" x1="-305.5" y1="203.25" x2="318.1" y2="203.25" xlink:href="#linear-gradient-6"/><linearGradient id="linear-gradient-12" x1="259.26" y1="258.27" x2="376.81" y2="198.18" xlink:href="#linear-gradient-6"/><linearGradient id="linear-gradient-13" x1="-293" y1="343.25" x2="66" y2="343.25" xlink:href="#linear-gradient-6"/><linearGradient id="linear-gradient-14" x1="14.61" y1="260.02" x2="118.29" y2="207.03" xlink:href="#linear-gradient-6"/><linearGradient id="linear-gradient-15" x1="-253.83" y1="412.76" x2="145.83" y2="208.49" xlink:href="#linear-gradient-6"/><linearGradient id="linear-gradient-16" x1="176.11" y1="399.77" x2="279.79" y2="346.78" xlink:href="#linear-gradient-6"/><linearGradient id="linear-gradient-17" x1="218.54" y1="378.09" x2="237.46" y2="368.41" xlink:href="#linear-gradient-6"/><linearGradient id="linear-gradient-18" x1="-55.12" y1="489.67" x2="189.12" y2="364.83" xlink:href="#linear-gradient-6"/><linearGradient id="linear-gradient-19" x1="-2812.92" y1="757.82" x2="-2758.61" y2="730.06" gradientTransform="translate(-5107.73 2107.73) rotate(180) scale(1.91)" xlink:href="#linear-gradient-6"/><linearGradient id="linear-gradient-20" x1="-50.92" y1="509.77" x2="242.79" y2="359.65" xlink:href="#linear-gradient-6"/><linearGradient id="linear-gradient-21" x1="-2852.31" y1="753.26" x2="-2793.57" y2="723.24" gradientTransform="translate(-5107.73 2107.73) rotate(180) scale(1.91)" xlink:href="#linear-gradient-6"/><linearGradient id="linear-gradient-22" x1="-315.92" y1="587.28" x2="26.52" y2="412.26" xlink:href="#linear-gradient-6"/><linearGradient id="linear-gradient-23" x1="-6.39" y1="472.02" x2="97.29" y2="419.03" xlink:href="#linear-gradient-6"/><linearGradient id="linear-gradient-24" x1="-292.92" y1="642.28" x2="49.52" y2="467.26" xlink:href="#linear-gradient-6"/><linearGradient id="linear-gradient-25" x1="16.61" y1="527.02" x2="120.29" y2="474.03" xlink:href="#linear-gradient-6"/><linearGradient id="linear-gradient-26" x1="-268.83" y1="655.76" x2="130.83" y2="451.49" xlink:href="#linear-gradient-6"/><linearGradient id="linear-gradient-27" x1="161.11" y1="642.77" x2="264.79" y2="589.78" xlink:href="#linear-gradient-6"/><linearGradient id="linear-gradient-28" x1="203.54" y1="621.09" x2="222.46" y2="611.41" xlink:href="#linear-gradient-6"/><linearGradient id="linear-gradient-29" x1="-286.54" y1="791.59" x2="308.68" y2="487.36" xlink:href="#linear-gradient-6"/><linearGradient id="linear-gradient-30" x1="295.61" y1="594.02" x2="399.29" y2="541.03" xlink:href="#linear-gradient-6"/><linearGradient id="linear-gradient-31" x1="-270.47" y1="841.56" x2="375.39" y2="511.46" xlink:href="#linear-gradient-6"/><linearGradient id="linear-gradient-32" x1="361.34" y1="626.93" x2="473.71" y2="569.5" xlink:href="#linear-gradient-6"/><linearGradient id="linear-gradient-33" x1="-245.87" y1="275.14" x2="331.87" y2="-20.14" xlink:href="#linear-gradient-6"/><linearGradient id="linear-gradient-34" x1="394.61" y1="216.02" x2="498.29" y2="163.03" xlink:href="#linear-gradient-6"/><linearGradient id="linear-gradient-35" x1="-288.05" y1="262.15" x2="98.85" y2="64.4" xlink:href="#linear-gradient-6"/><linearGradient id="linear-gradient-36" x1="68.7" y1="155.95" x2="195.37" y2="91.21" xlink:href="#linear-gradient-6"/><linearGradient id="linear-gradient-37" x1="-325.33" y1="196.11" x2="147" y2="-45.3" xlink:href="#linear-gradient-6"/><linearGradient id="linear-gradient-38" x1="-389" y1="590.5" x2="335" y2="590.5" xlink:href="#linear-gradient-6"/><linearGradient id="linear-gradient-39" x1="291.61" y1="685.02" x2="395.29" y2="632.03" xlink:href="#linear-gradient-6"/><linearGradient id="linear-gradient-40" x1="-272.48" y1="467.99" x2="312.48" y2="169.01" xlink:href="#linear-gradient-6"/><linearGradient id="linear-gradient-41" x1="397.61" y1="448.02" x2="501.29" y2="395.03" xlink:href="#linear-gradient-6"/><linearGradient id="linear-gradient-42" x1="-1894" y1="1030.25" x2="-1344" y2="1030.25" gradientTransform="matrix(-1, 0, 0, 1, 284, 0)" xlink:href="#linear-gradient-6"/><linearGradient id="linear-gradient-43" x1="-1395.89" y1="1078.77" x2="-1292.21" y2="1025.78" gradientTransform="matrix(-1, 0, 0, 1, 284, 0)" xlink:href="#linear-gradient-6"/><linearGradient id="linear-gradient-44" x1="-1823" y1="1073.5" x2="-1507" y2="912" gradientTransform="matrix(-1, 0, 0, 1, 284, 0)" xlink:href="#linear-gradient-6"/><linearGradient id="linear-gradient-45" x1="-1532.39" y1="986.02" x2="-1428.71" y2="933.03" gradientTransform="matrix(-1, 0, 0, 1, 284, 0)" xlink:href="#linear-gradient-6"/><linearGradient id="linear-gradient-46" x1="-1440.39" y1="864.02" x2="-1336.71" y2="811.03" gradientTransform="matrix(-1, 0, 0, 1, 284, 0)" xlink:href="#linear-gradient-6"/><linearGradient id="linear-gradient-47" x1="-1891.5" y1="1007.25" x2="-1267.9" y2="1007.25" gradientTransform="matrix(-1, 0, 0, 1, 284, 0)" xlink:href="#linear-gradient-6"/><linearGradient id="linear-gradient-48" x1="-1326.74" y1="1062.27" x2="-1209.19" y2="1002.18" gradientTransform="matrix(-1, 0, 0, 1, 284, 0)" xlink:href="#linear-gradient-6"/><linearGradient id="linear-gradient-49" x1="-1879" y1="1147.25" x2="-1520" y2="1147.25" gradientTransform="matrix(-1, 0, 0, 1, 284, 0)" xlink:href="#linear-gradient-6"/><linearGradient id="linear-gradient-50" x1="-1571.39" y1="1064.02" x2="-1467.71" y2="1011.03" gradientTransform="matrix(-1, 0, 0, 1, 284, 0)" xlink:href="#linear-gradient-6"/><linearGradient id="linear-gradient-51" x1="-1839.83" y1="1216.76" x2="-1440.17" y2="1012.49" gradientTransform="matrix(-1, 0, 0, 1, 284, 0)" xlink:href="#linear-gradient-6"/><linearGradient id="linear-gradient-52" x1="-1831.87" y1="1079.14" x2="-1254.13" y2="783.86" gradientTransform="matrix(-1, 0, 0, 1, 284, 0)" xlink:href="#linear-gradient-6"/><linearGradient id="linear-gradient-53" x1="-1191.39" y1="1020.02" x2="-1087.71" y2="967.03" gradientTransform="matrix(-1, 0, 0, 1, 284, 0)" xlink:href="#linear-gradient-6"/><linearGradient id="linear-gradient-54" x1="-1874.05" y1="1066.15" x2="-1487.15" y2="868.4" gradientTransform="matrix(-1, 0, 0, 1, 284, 0)" xlink:href="#linear-gradient-6"/><linearGradient id="linear-gradient-55" x1="-1517.3" y1="959.95" x2="-1390.63" y2="895.21" gradientTransform="matrix(-1, 0, 0, 1, 284, 0)" xlink:href="#linear-gradient-6"/><linearGradient id="linear-gradient-56" x1="-1911.33" y1="1000.11" x2="-1439" y2="758.7" gradientTransform="matrix(-1, 0, 0, 1, 284, 0)" xlink:href="#linear-gradient-6"/><linearGradient id="linear-gradient-57" x1="-1858.48" y1="1271.99" x2="-1273.52" y2="973.01" gradientTransform="matrix(-1, 0, 0, 1, 284, 0)" xlink:href="#linear-gradient-6"/><linearGradient id="linear-gradient-58" x1="653.2" y1="-125.04" x2="6.93" y2="130.7" xlink:href="#linear-gradient"/><linearGradient id="linear-gradient-59" x1="328.65" y1="87.54" x2="84.42" y2="193.53" xlink:href="#linear-gradient"/><linearGradient id="linear-gradient-60" x1="1153.66" y1="-338.42" x2="1196.01" y2="-338.42" gradientTransform="matrix(-0.12, -0.99, 0.99, -0.12, 2367.25, 1968.52)" xlink:href="#linear-gradient"/><linearGradient id="linear-gradient-61" x1="1184.99" y1="-369.76" x2="1227.34" y2="-369.76" gradientTransform="matrix(-0.12, -0.99, 0.99, -0.12, 2367.25, 1968.52)" xlink:href="#linear-gradient"/><linearGradient id="linear-gradient-62" x1="1216.33" y1="-401.1" x2="1258.68" y2="-401.1" gradientTransform="matrix(-0.12, -0.99, 0.99, -0.12, 2367.25, 1968.52)" xlink:href="#linear-gradient"/></defs><title>websitebackground copy3 copy copy</title><g class="cls-3"><g id="Layer_1" data-name="Layer 1"><g class="cls-4"><rect class="cls-2" x="-223.99" y="-518.07" width="2313.95" height="2303.3"/><g class="cls-5"><path class="cls-6" d="M-497.41,1739.59C291,2336.87,1080.25,2826.24,1798.65,3181.79L2903,2524.5-2355.64-1472.17-2408-1441Z"/><path class="cls-7" d="M-2355.64-1472.17,2903,2524.5l227.12-135.18c-683.67-586.43-1578.94-1307-2575.62-2064.45C-444-434-1379.68-1104.89-2128.79-1607.19Z"/><path class="cls-8" d="M2631.33,719C2207,310.16,1723.3-105,1193.24-507.85c-876-665.82-1751.49-1201.76-2528.72-1571.51l-1020.16,607.19L2903,2524.5l598.84-356.43Z"/><path class="cls-9" d="M-2116.44-955.58C-1480.7-421.93-701.37,199.83,152.56,848.83,1076.66,1551.17,1947,2178.18,2665.41,2665.9L2903,2524.5-2355.64-1472.17-2408-1441Z"/><path class="cls-10" d="M3390.51,2234.32-585.55-787.57C-796.06-30,301.28,1533.39,2078.27,3015.37Z"/><path class="cls-11" d="M3214.25,1689.36C1325,280.41-244.43-742.63-585.55-787.57L3390.51,2234.32l111.31-66.25Z"/><path class="cls-12" d="M2073.31-209.92C871.38-816.25-127.34-1050.66-585.55-787.57L3390.51,2234.32l111.31-66.25Z"/><path class="cls-13" d="M3390.51,2234.32-585.55-787.57c139.77,330.74,1675,1673.21,3670.69,3203.65Z"/><path class="cls-14" d="M2946.36,1243.42-1386-2049.28-2408-1441l267.33,445C-1684-537.8-1149.66-70.09-556.45,380.77,792.44,1406,2145.58,2115.75,3144.13,2381l357.69-212.9Z"/><path class="cls-15" d="M2557.73,596.47C1967.27,107.56,1271-444.62,516.52-1018-52.75-1450.68-601.6-1854.74-1107.13-2215.28l-278.89,166,4332.38,3292.7Z"/><path class="cls-16" d="M1031.86-1943.59c-408-304.47-814.89-580.47-1210.78-824.15L-1386-2049.28l4332.38,3292.7Z"/><path class="cls-17" d="M2946.36,1243.42-1386-2049.28l-271.74,161.74C-1128.86-1455.8-528.22-982.62,114.61-494.06c1204.51,915.46,2317.63,1702.89,3122,2220.72Z"/><path class="cls-18" d="M-113.91,2378C243.56,2770.38,663.89,3175.8,1135,3576.82l1304.72-776.56L-1405-121.75c-26.24,94.42-32,201.43-18.86,319.17Z"/><path class="cls-19" d="M2439.68,2800.26l305.7-182C702.49,1075.23-1042.95-74.06-1405-121.75Z"/><path class="cls-20" d="M3185.94,1642.24C1197.9,213-715.46-517.64-1405-121.75l3844.64,2922,1062.14-632.19Z"/><path class="cls-21" d="M2439.68,2800.26-1405-121.75c136.7,323.49,1608.37,1614.83,3540.1,3103.27Z"/></g><path class="cls-22" d="M1859.71,232a41.29,41.29,0,0,1-29.35-12.13L1701.9,91.69a41.32,41.32,0,0,1,0-58.55L1830.36-95a41.28,41.28,0,0,1,29.35-12.12A41.29,41.29,0,0,1,1889.06-95L2017.52,33.14a41.32,41.32,0,0,1,0,58.55L1889.06,219.82A41.3,41.3,0,0,1,1859.71,232Z"/><path class="cls-23" d="M1859.71,290a41.29,41.29,0,0,1-29.35-12.13L1701.9,149.74a41.31,41.31,0,0,1,0-58.54L1830.36-36.93a41.29,41.29,0,0,1,29.35-12.13,41.3,41.3,0,0,1,29.35,12.13L2017.52,91.2a41.31,41.31,0,0,1,0,58.54L1889.06,277.87A41.3,41.3,0,0,1,1859.71,290Z"/><path class="cls-24" d="M172.92,1428a58.39,58.39,0,0,1-41.52-17.16L-50.35,1229.56a58.07,58.07,0,0,1-17.2-41.41,58.07,58.07,0,0,1,17.2-41.42L131.4,965.45a58.82,58.82,0,0,1,83,0L396.2,1146.73a58.46,58.46,0,0,1,0,82.83L214.45,1410.84A58.41,58.41,0,0,1,172.92,1428Z"/><path class="cls-25" d="M173.39,1394a57.81,57.81,0,0,1-41.09-17L-47.56,1197.63a57.49,57.49,0,0,1-17-41,57.49,57.49,0,0,1,17-41L132.3,936.26a58.23,58.23,0,0,1,82.18,0l179.86,179.4a57.86,57.86,0,0,1,0,82L214.48,1377A57.79,57.79,0,0,1,173.39,1394Z"/><path class="cls-26" d="M462.78,971.92a4.11,4.11,0,1,1,4.11,4.11A4.11,4.11,0,0,1,462.78,971.92Z"/><circle class="cls-26" cx="466.89" cy="937.24" r="4.11" transform="translate(-525.98 604.65) rotate(-45)"/><path class="cls-26" d="M431.41,971.92a4.11,4.11,0,1,1,4.11,4.11A4.11,4.11,0,0,1,431.41,971.92Z"/><path class="cls-26" d="M431.41,937.24a4.11,4.11,0,1,1,4.11,4.11A4.11,4.11,0,0,1,431.41,937.24Z"/><path class="cls-26" d="M400,971.92a4.11,4.11,0,1,1,4.1,4.11A4.11,4.11,0,0,1,400,971.92Z"/><circle class="cls-26" cx="404.14" cy="937.24" r="4.11" transform="translate(-544.36 560.28) rotate(-45)"/><path class="cls-26" d="M368.66,971.92a4.11,4.11,0,1,1,4.11,4.11A4.1,4.1,0,0,1,368.66,971.92Z"/><path class="cls-26" d="M368.66,937.24a4.11,4.11,0,1,1,4.11,4.11A4.11,4.11,0,0,1,368.66,937.24Z"/><path class="cls-26" d="M337.29,971.92A4.11,4.11,0,1,1,341.4,976,4.1,4.1,0,0,1,337.29,971.92Z"/><path class="cls-26" d="M337.29,937.24a4.11,4.11,0,1,1,4.11,4.11A4.11,4.11,0,0,1,337.29,937.24Z"/><path class="cls-26" d="M305.92,971.92A4.11,4.11,0,1,1,310,976,4.1,4.1,0,0,1,305.92,971.92Z"/><path class="cls-26" d="M305.92,937.24a4.11,4.11,0,1,1,4.11,4.11A4.11,4.11,0,0,1,305.92,937.24Z"/><path class="cls-27" d="M394.29,229.86h0a26,26,0,0,1,0-36.61L667-79.43a26,26,0,0,1,36.6,0h0a26,26,0,0,1,0,36.6L430.89,229.86A26,26,0,0,1,394.29,229.86Z"/><polyline class="cls-28" points="-335 397 -244 397 -131.5 509.5 57 509.5 91.25 475.25 215 475.25"/><circle class="cls-29" cx="215" cy="475.25" r="10.5"/><polyline class="cls-30" points="-287 449 -74 449 -7.5 382.5 75 382.5"/><circle class="cls-31" cx="78.5" cy="382.5" r="10.5"/><circle class="cls-32" cx="170.5" cy="260.5" r="10.5"/><g class="cls-33"><polyline class="cls-34" points="-332.5 366.47 -229.32 366.47 -101.77 494.03 111.95 494.03 150.79 455.19 291.1 455.19"/><circle class="cls-35" cx="291.1" cy="455.19" r="11.9"/></g><polyline class="cls-36" points="-320 681 -255 681 -33.5 459.5 39 459.5"/><circle class="cls-37" cx="39.5" cy="460.5" r="10.5"/><polyline class="cls-38" points="-363 475 -247 475 -166.5 555.5 98 555.5 142.75 600.25 201 600.25"/><circle class="cls-39" cx="201" cy="600.25" r="10.5"/><polyline class="cls-40" points="-130 621 57 621 123.5 687.5 210 687.5"/><circle class="cls-41" cx="210.5" cy="687.5" r="10.5"/><polyline class="cls-42" points="-134 625.05 89.23 625.05 168.61 698.37 271.87 698.37"/><ellipse class="cls-43" cx="281.47" cy="698.37" rx="11.53" ry="10.65"/><polyline class="cls-44" points="-348 803 -287 742 -116 742 -47.5 673.5 16 673.5"/><circle class="cls-45" cx="18.5" cy="672.5" r="10.5"/><g class="cls-33"><polyline class="cls-46" points="-325 858 -264 797 -93 797 -24.5 728.5 39 728.5"/><circle class="cls-47" cx="41.5" cy="727.5" r="10.5"/></g><g class="cls-33"><polyline class="cls-48" points="-378 718 -262 718 -181.5 798.5 83 798.5 127.75 843.25 186 843.25"/><circle class="cls-49" cx="186" cy="843.25" r="10.5"/></g><polyline class="cls-50" points="-344 957 -193 957 8 756 282 756 320.5 794.5"/><circle class="cls-51" cx="320.5" cy="794.5" r="10.5"/><g class="cls-33"><polyline class="cls-52" points="-332 999 -167.8 999 50.77 784 348.72 784 390.58 825.18"/><ellipse class="cls-53" cx="390.58" cy="825.18" rx="11.42" ry="11.23"/></g><polyline class="cls-54" points="411 417 214 417 163 468 -122 468 -298 292 -379 292"/><circle class="cls-55" cx="419.5" cy="416.5" r="10.5"/><g class="cls-33"><polyline class="cls-56" points="-344 430 -82.28 430 -0.57 350.55 100.8 350.55"/><ellipse class="cls-57" cx="105.1" cy="350.55" rx="12.9" ry="12.55"/></g><g class="cls-33"><polyline class="cls-58" points="-392 343 -67.4 343 33.94 261.82 159.66 261.82"/></g><polyline class="cls-59" points="308 886.5 -122.42 886.5 -294.09 748.5 -416 748.5"/><circle class="cls-60" cx="316.5" cy="885.5" r="10.5"/><polyline class="cls-61" points="413 649.5 332 649.5 261 578.5 -147 578.5 -284 441.5 -427 441.5"/><circle class="cls-62" cx="422.5" cy="648.5" r="10.5"/><polyline class="cls-63" points="2178 974 2087 974 1974.5 1086.5 1786 1086.5 1751.75 1052.25 1628 1052.25"/><circle class="cls-64" cx="1628" cy="1052.25" r="10.5"/><polyline class="cls-65" points="2130 1026 1917 1026 1850.5 959.5 1768 959.5"/><circle class="cls-66" cx="1764.5" cy="959.5" r="10.5"/><circle class="cls-67" cx="1672.5" cy="837.5" r="10.5"/><g class="cls-33"><polyline class="cls-68" points="2175.5 943.47 2072.32 943.47 1944.77 1071.03 1731.05 1071.03 1692.21 1032.19 1551.9 1032.19"/><circle class="cls-69" cx="1551.9" cy="1032.19" r="11.9"/></g><polyline class="cls-70" points="2163 1258 2098 1258 1876.5 1036.5 1804 1036.5"/><circle class="cls-71" cx="1803.5" cy="1037.5" r="10.5"/><polyline class="cls-72" points="2206 1052 2090 1052 2009.5 1132.5 1745 1132.5 1700.25 1177.25 1642 1177.25"/><polyline class="cls-73" points="1432 994 1629 994 1680 1045 1965 1045 2141 869 2222 869"/><circle class="cls-74" cx="1423.5" cy="993.5" r="10.5"/><g class="cls-33"><polyline class="cls-75" points="2187 1007 1925.28 1007 1843.57 927.54 1742.2 927.54"/><ellipse class="cls-76" cx="1737.9" cy="927.55" rx="12.9" ry="12.55"/></g><g class="cls-33"><polyline class="cls-77" points="2235 920 1910.4 920 1809.06 838.82 1683.34 838.82"/></g><polyline class="cls-78" points="1430 1226.5 1511 1226.5 1582 1155.5 1990 1155.5 2127 1018.5 2270 1018.5"/><path class="cls-79" d="M329.5,216a51.85,51.85,0,0,1-36.86-15.23l-161.37-161A51.61,51.61,0,0,1,116,3.05a51.61,51.61,0,0,1,15.26-36.77L292.64-194.66a51.85,51.85,0,0,1,36.86-15.23,51.88,51.88,0,0,1,36.87,15.23L527.73-33.72A51.58,51.58,0,0,1,543,3.05a51.58,51.58,0,0,1-15.27,36.77l-161.36,161A51.88,51.88,0,0,1,329.5,216Z"/><path class="cls-80" d="M225.52,216A20.4,20.4,0,0,1,211,210L147.6,146.75a20.41,20.41,0,0,1,0-28.91L211,54.58a20.52,20.52,0,0,1,29,0l63.43,63.26a20.41,20.41,0,0,1,0,28.91L240,210A20.4,20.4,0,0,1,225.52,216Z"/><path class="cls-81" d="M1888.93,834.25l19.14-2.24a6.9,6.9,0,0,0,4.64-2.59h0a6.94,6.94,0,0,0-6.25-11.2l-27.63,3.22a7.58,7.58,0,0,0-6.65,8.4l3.23,27.63a7,7,0,0,0,12.35,3.51h0a7,7,0,0,0,1.45-5.12L1887,836.72A2.23,2.23,0,0,1,1888.93,834.25Z"/><path class="cls-82" d="M1854.17,806.76l19.14-2.24a6.9,6.9,0,0,0,4.64-2.59h0a6.94,6.94,0,0,0-6.26-11.2L1844.06,794a7.58,7.58,0,0,0-6.64,8.4l3.23,27.63a7,7,0,0,0,12.35,3.51h0a7,7,0,0,0,1.45-5.12l-2.24-19.14A2.23,2.23,0,0,1,1854.17,806.76Z"/><path class="cls-83" d="M1819.4,779.27l19.14-2.24a6.94,6.94,0,0,0,4.65-2.59h0a6.94,6.94,0,0,0-6.26-11.2l-27.63,3.22a7.57,7.57,0,0,0-6.64,8.4l3.23,27.63a6.94,6.94,0,0,0,12.34,3.51h0a7,7,0,0,0,1.46-5.12l-2.24-19.14A2.23,2.23,0,0,1,1819.4,779.27Z"/><rect class="cls-1" x="21" y="14" width="1920" height="1080"/><rect class="cls-1" x="-2" y="2" width="1920" height="1080"/><path class="cls-26" d="M1867.44,353.31a4.11,4.11,0,1,1,.71-5.77A4.12,4.12,0,0,1,1867.44,353.31Z"/><circle class="cls-26" cx="1837.56" cy="371.39" r="4.11" transform="translate(1243.18 2149.39) rotate(-82.94)"/><path class="cls-26" d="M1886.73,378.05a4.11,4.11,0,1,1,.71-5.77A4.12,4.12,0,0,1,1886.73,378.05Z"/><path class="cls-26" d="M1859.37,399.37a4.11,4.11,0,1,1,.72-5.76A4.09,4.09,0,0,1,1859.37,399.37Z"/><path class="cls-26" d="M1906,402.79a4.11,4.11,0,1,1,.71-5.77A4.12,4.12,0,0,1,1906,402.79Z"/><circle class="cls-26" cx="1876.14" cy="420.87" r="4.11" transform="translate(1227.91 2231.08) rotate(-82.94)"/><path class="cls-26" d="M1925.31,427.53a4.11,4.11,0,1,1,.71-5.77A4.11,4.11,0,0,1,1925.31,427.53Z"/><path class="cls-26" d="M1898,448.86a4.11,4.11,0,1,1,.72-5.77A4.11,4.11,0,0,1,1898,448.86Z"/><path class="cls-26" d="M1917.24,473.6a4.11,4.11,0,1,1,.72-5.77A4.11,4.11,0,0,1,1917.24,473.6Z"/></g></g></g></svg>